{"accessors" : [{"bufferView" : 0, "byteOffset" : 0, "componentType" : 5123, "count" : 38712, "type" : "SCALAR", "max" : [32261], "min" : [0]}, {"bufferView" : 1, "byteOffset" : 0, "componentType" : 5126, "count" : 32262, "type" : "VEC3", "max" : [27.597469329833984, 55.5881462097168, 13.935164451599121], "min" : [-27.675758361816406, -5.756649017333984, -13.047693252563477], "name" : "POSITION"}, {"bufferView" : 1, "byteOffset" : 12, "componentType" : 5126, "count" : 32262, "type" : "VEC2", "max" : [0.9978079795837402, -0.014406999573111534], "min" : [0.002191999927163124, -0.9978079795837402], "name" : "TEXCOORD_0"}, {"bufferView" : 1, "byteOffset" : 20, "componentType" : 5126, "count" : 32262, "type" : "VEC3", "max" : [1.000003457069397, 0.9999038577079773, 0.999977707862854], "min" : [-0.9999302625656128, -0.9931827783584595, -0.9999927878379822], "name" : "NORMAL"}, {"bufferView" : 0, "byteOffset" : 77424, "componentType" : 5123, "count" : 25086, "type" : "SCALAR", "max" : [20087], "min" : [0]}, {"bufferView" : 2, "byteOffset" : 0, "componentType" : 5126, "count" : 20088, "type" : "VEC3", "max" : [-38.956722259521484, 49.39869689941406, 13.316280364990234], "min" : [-82.41108703613281, -3.1165831089019775, -11.604418754577637], "name" : "POSITION"}, {"bufferView" : 2, "byteOffset" : 12, "componentType" : 5126, "count" : 20088, "type" : "VEC2", "max" : [0.9927669763565063, -0.05677799880504608], "min" : [0.006955999881029129, -0.9904239773750305], "name" : "TEXCOORD_0"}, {"bufferView" : 2, "byteOffset" : 20, "componentType" : 5126, "count" : 20088, "type" : "VEC3", "max" : [0.9998824596405029, 0.9984920024871826, 0.9999797940254211], "min" : [-0.9998520612716675, -0.9988089203834534, -0.9999918341636658], "name" : "NORMAL"}], "asset" : {"generator" : "Aspose.3D 22.1", "version" : "2.0"}, "buffers" : [{"uri" : "data:application/octet-stream;base64,", "byteLength" : 2169144}], "bufferViews" : [{"buffer" : 0, "byteOffset" : 0, "byteLength" : 127596, "target" : 34963}, {"buffer" : 0, "byteOffset" : 127600, "byteLength" : 1238784, "byteStride" : 32, "target" : 34962}, {"buffer" : 0, "byteOffset" : 1366388, "byteLength" : 802752, "byteStride" : 32, "target" : 34962}], "meshes" : [{"primitives" : [{"attributes" : {"POSITION" : 1, "TEXCOORD_0" : 2, "NORMAL" : 3}, "indices" : 0, "mode" : 4}], "name" : ""}, {"primitives" : [{"attributes" : {"POSITION" : 5, "TEXCOORD_0" : 6, "NORMAL" : 7}, "indices" : 4, "mode" : 4}], "name" : ""}], "nodes" : [{"mesh" : 0, "name" : "T_Shirt_male"}, {"mesh" : 1, "name" : "T_Shirt_female"}], "scene" : 0, "scenes" : [{"nodes" : [0, 1]}]}